:SAMPLES-PER-SECOND 30
:FULLY-SPECIFIED
:DEGREES
93
root  -24.5949 38.8935 1.65371 164.637 85.9279 161.409
RightUpLeg  -5.81303 0.935061 4.28967
RightLeg  26.8458 2.6598 -3.80612
RightFoot  -11.2292 -0.0274327 1.64142
RightToes  1.16414e-010 -1.59028e-015 9.93923e-017
Spine  20.7306 0.309422 -0.689535
Spine1  3.52266 0.0749854 0.306214
HEad  -22.5052 1.76138 6.31759
LeftShoulder1  9.93923e-017 0 1.22299e-017
LeftArm  3.95071 37.9316 -78.4811
LeftForeArm  -13.9341 -8.04564 -7.00697
LeftHand  0.996407 7.08264 -3.58275
RightShoulder  1.98785e-016 -4.96962e-017 1.55301e-017
RightArm  -14.6947 -28.3774 84.4168
RightForeArm  -172.887 16.1753 -14.875
RightHand  2.03841 3.60979 26.9699
LeftUpLeg  -29.7783 -5.58689 0.429201
LeftLeg  45.6851 -5.47328 6.5199
LeftFoot  1.53206 0.50624 -3.80434
LeftToes  -6.63929e-010 -3.62392e-011 -1.02376e-010
94
root  -23.4553 39.4647 1.65508 155.177 86.0609 150.994
RightUpLeg  -2.22873 1.9103 3.7248
RightLeg  20.6181 1.74942 -3.09231
RightFoot  -7.42259 -0.133496 2.68629
RightToes  1.16414e-010 -1.59028e-015 9.93923e-017
Spine  16.3265 0.870311 -0.666109
Spine1  4.7304 0.834511 -0.394316
HEad  -21.4604 0.73915 6.33304
LeftShoulder1  9.93923e-017 0 1.22299e-017
LeftArm  13.3168 44.5035 -76.438
LeftForeArm  -17.4633 -12.3707 -4.89672
LeftHand  0.982185 6.90648 -5.50078
RightShoulder  1.98785e-016 -4.96962e-017 1.55301e-017
RightArm  -11.7771 -27.3826 82.8817
RightForeArm  -176.139 18.7925 -17.7661
RightHand  1.966 3.37627 26.5157
LeftUpLeg  -28.7645 -5.96126 -0.400197
LeftLeg  35.8876 -5.06479 4.3538
LeftFoot  2.15839 0.710485 -5.15433
LeftToes  -6.63929e-010 -3.62392e-011 -1.02376e-010
95
root  -22.3349 39.8428 1.61683 147.18 86.5245 142.173
RightUpLeg  1.02407 2.35707 3.39875
RightLeg  15.2434 1.82163 -2.29998
RightFoot  -4.01482 -0.298828 3.77409
RightToes  1.16414e-010 -1.59028e-015 9.93923e-017
Spine  12.363 1.69055 0.258517
Spine1  5.80484 2.02304 -1.40741
HEad  -20.5779 -0.943201 6.15095
LeftShoulder1  9.93923e-017 0 1.22299e-017
LeftArm  21.7825 49.8795 -74.0008
LeftForeArm  -18.5304 -15.4435 -2.45636
LeftHand  0.938495 6.32738 -6.95657
RightShoulder  1.98785e-016 -4.96962e-017 1.55301e-017
RightArm  -9.71931 -26.0626 80.689
RightForeArm  -178.889 22.1468 -21.0718
RightHand  1.83744 2.78781 25.9612
LeftUpLeg  -27.6341 -7.54582 -0.454343
LeftLeg  25.3788 -3.57561 2.98422
LeftFoot  2.59822 0.678293 -4.76852
LeftToes  -6.63929e-010 -3.62392e-011 -1.02376e-010
96
root  -21.2544 40.0482 1.53874 135.243 87.5205 129.65
RightUpLeg  4.01211 1.71974 3.18662
RightLeg  10.8068 3.87376 -1.51469
RightFoot  -1.03917 -0.468328 4.45212
RightToes  1.16414e-010 -1.59028e-015 9.93923e-017
Spine  9.41894 2.61459 2.05178
Spine1  6.424 3.45011 -2.92186
HEad  -20.0466 -2.57562 5.82801
LeftShoulder1  9.93923e-017 0 1.22299e-017
LeftArm  25.556 54.4317 -70.7387
LeftForeArm  -17.2065 -16.4976 -1.09174
LeftHand  0.911993 5.87184 -7.86867
RightShoulder  1.98785e-016 -4.96962e-017 1.55301e-017
RightArm  -9.42868 -23.8587 78.2083
RightForeArm  -179.484 25.7883 -23.5109
RightHand  1.85116 2.86059 26.0011
LeftUpLeg  -26.6516 -9.10461 0.00826982
LeftLeg  15.5304 -1.79319 2.12331
LeftFoot  2.77833 0.628391 -4.3588
LeftToes  -6.63929e-010 -3.62392e-011 -1.02376e-010
97
root  -20.1943 40.081 1.44027 104.598 88.3529 98.506
RightUpLeg  6.54619 0.717466 2.52965
RightLeg  7.61652 6.83389 -0.666974
RightFoot  0.940267 -0.577095 4.6966
RightToes  1.16414e-010 -1.59028e-015 9.93923e-017
Spine  7.45067 3.43335 3.90039
Spine1  6.63998 4.79453 -4.67443
HEad  -19.9374 -3.61907 5.43326
LeftShoulder1  9.93923e-017 0 1.22299e-017
LeftArm  24.6113 58.2541 -66.4653
LeftForeArm  -14.6531 -16.0758 -1.02477
LeftHand  0.924521 5.90256 -8.80486
RightShoulder  1.98785e-016 -4.96962e-017 1.55301e-017
RightArm  -9.42326 -20.5484 76.077
RightForeArm  -179.644 28.8765 -25.4913
RightHand  1.96933 3.53034 26.316
LeftUpLeg  -26.0587 -7.33247 -0.995195
LeftLeg  7.49493 -3.10162 1.81265
LeftFoot  2.51734 0.658784 -4.65891
LeftToes  -6.63929e-010 -3.62392e-011 -1.02376e-010
98
root  -19.1142 39.9242 1.33342 62.0156 88.1037 55.7326
RightUpLeg  8.78759 -0.2997 1.38539
RightLeg  6.0009 9.63052 0.0767103
RightFoot  1.22076 -0.622135 4.96254
RightToes  1.16414e-010 -1.59028e-015 9.93923e-017
Spine  6.47693 3.98023 5.32168
Spine1  6.66845 5.84409 -6.33843
HEad  -20.181 -4.11732 5.04338
LeftShoulder1  9.93923e-017 0 1.22299e-017
LeftArm  21.057 61.1018 -61.5318
LeftForeArm  -11.0606 -14.6301 -1.75672
LeftHand  0.937936 6.05692 -9.16306
RightShoulder  1.98785e-016 -4.96962e-017 1.55301e-017
RightArm  -10.072 -16.5084 74.585
RightForeArm  -179.642 31.2436 -27.1117
RightHand  2.02999 4.02683 26.2306
LeftUpLeg  -25.9381 -5.52071 -2.0831
LeftLeg  2.70637 -4.00541 1.35996
LeftFoot  1.28867 0.660301 -5.08599
LeftToes  -6.63929e-010 -3.62392e-011 -1.02376e-010
99
root  -17.9878 39.6057 1.20913 41.3611 87.3113 35.5334
RightUpLeg  11.1177 -1.11797 0.295033
RightLeg  5.93927 11.7753 0.459355
RightFoot  0.251324 -0.634698 5.43128
RightToes  1.16414e-010 -1.59028e-015 9.93923e-017
Spine  6.51335 4.16702 6.66005
Spine1  6.69784 6.51236 -7.86197
HEad  -20.9129 -4.23947 4.70569
LeftShoulder1  9.93923e-017 0 1.22299e-017
LeftArm  16.4777 62.5993 -57.0103
LeftForeArm  -6.50077 -12.1937 -2.95848
LeftHand  0.923429 6.01132 -8.06127
RightShoulder  1.98785e-016 -4.96962e-017 1.55301e-017
RightArm  -11.5009 -12.144 73.8974
RightForeArm  -179.397 32.6839 -28.1267
RightHand  2.05233 4.36118 25.9827
LeftUpLeg  -25.7954 -5.60382 -2.36227
LeftLeg  1.56455 -3.05861 0.954256
LeftFoot  0.431534 0.614492 -5.04856
LeftToes  -6.63929e-010 -3.62392e-011 -1.02376e-010
100
root  -16.7746 39.2027 1.07197 32.4749 86.5799 27.4263
RightUpLeg  13.3582 -1.57684 -0.596905
RightLeg  7.07474 13.1795 0.430328
RightFoot  -0.691305 -0.663611 6.11448
RightToes  1.16414e-010 -1.59028e-015 9.93923e-017
Spine  6.95339 4.01247 7.85318
Spine1  6.83418 6.80069 -9.28041
HEad  -22.3454 -4.01527 4.54338
LeftShoulder1  9.93923e-017 0 1.22299e-017
LeftArm  10.8894 62.4346 -54.1505
LeftForeArm  -1.72594 -8.31522 -4.50926
LeftHand  0.915953 6.13874 -6.03369
RightShoulder  1.98785e-016 -4.96962e-017 1.55301e-017
RightArm  -13.4574 -8.08658 74.1373
RightForeArm  -178.787 33.0637 -28.3683
RightHand  2.20066 5.21454 26.2919
LeftUpLeg  -25.7549 -6.09536 -2.63122
LeftLeg  3.90096 -2.53846 1.28384
LeftFoot  1.74613 0.601047 -4.48984
LeftToes  -6.63929e-010 -3.62392e-011 -1.02376e-010
101
root  -15.4293 38.8018 0.945307 33.2336 85.862 28.6291
RightUpLeg  14.9028 -1.6966 -1.72798
RightLeg  9.05342 13.7817 0.260429
RightFoot  -0.760235 -0.825183 7.63483
RightToes  1.16414e-010 -1.59028e-015 9.93923e-017
Spine  6.93665 3.73379 8.29359
Spine1  6.93404 6.82548 -10.6603
HEad  -24.1224 -3.65742 4.77732
LeftShoulder1  9.93923e-017 0 1.22299e-017
LeftArm  4.97207 60.5779 -53.4258
LeftForeArm  1.84597 -3.87009 -5.65965
LeftHand  0.970275 6.81397 -4.40671
RightShoulder  1.98785e-016 -4.96962e-017 1.55301e-017
RightArm  -15.7534 -5.55341 75.1546
RightForeArm  -178.477 32.6502 -28.0493
RightHand  2.45751 6.29869 27.2524
LeftUpLeg  -26.4292 -7.78146 -2.54629
LeftLeg  9.13815 -1.37877 1.76657
LeftFoot  4.11911 0.582469 -3.70268
LeftToes  -6.63929e-010 -3.62392e-011 -1.02376e-010
102
root  -13.9491 38.4611 0.841483 41.1666 85.1311 36.6066
RightUpLeg  15.3016 -0.887665 -3.07499
RightLeg  12.3403 12.6976 0.287486
RightFoot  0.694507 -1.24637 10.2269
RightToes  1.16414e-010 -1.59028e-015 9.93923e-017
Spine  6.37487 3.4446 7.80718
Spine1  6.87313 6.70879 -12.0572
HEad  -25.3621 -3.47411 5.40075
LeftShoulder1  9.93923e-017 0 1.22299e-017
LeftArm  -0.608955 57.5484 -54.528
LeftForeArm  4.55192 -1.94366 -5.44926
LeftHand  1.0629 7.68657 -3.58203
RightShoulder  1.98785e-016 -4.96962e-017 1.55301e-017
RightArm  -17.8706 -5.40283 76.6447
RightForeArm  -179.168 31.643 -27.3656
RightHand  2.61044 6.56434 28.2422
LeftUpLeg  -27.3397 -9.32099 -2.89521
LeftLeg  15.355 -0.351872 2.24879
LeftFoot  4.1904 0.431913 -2.69481
LeftToes  -6.63929e-010 -3.62392e-011 -1.02376e-010
103
root  -12.4176 38.2087 0.759222 50.2505 84.44 45.8372
RightUpLeg  14.2207 1.03893 -4.13687
RightLeg  18.1294 9.79685 0.280901
RightFoot  5.37954 -1.94874 11.9684
RightToes  1.16414e-010 -1.59028e-015 9.93923e-017
Spine  5.85568 3.03587 6.47372
Spine1  6.82194 6.35129 -13.0559
HEad  -25.6158 -3.2941 5.9707
LeftShoulder1  9.93923e-017 0 1.22299e-017
LeftArm  -6.00299 54.2304 -57.3848
LeftForeArm  6.14857 -1.64384 -4.83723
LeftHand  1.11938 8.17011 -3.21303
RightShoulder  1.98785e-016 -4.96962e-017 1.55301e-017
RightArm  -18.8325 -7.19613 78.4725
RightForeArm  -179.846 29.9277 -26.2098
RightHand  2.55812 6.09271 28.4207
LeftUpLeg  -27.2657 -9.39854 -4.54096
LeftLeg  20.4554 -0.765033 3.25419
LeftFoot  1.06378 0.167453 -1.2698
LeftToes  -6.63929e-010 -3.62392e-011 -1.02376e-010
